<?xml version="1.0" encoding="UTF-8" standalone="no"?>
<svg
   xmlns:dc="http://purl.org/dc/elements/1.1/"
   xmlns:cc="http://creativecommons.org/ns#"
   xmlns:rdf="http://www.w3.org/1999/02/22-rdf-syntax-ns#"
   xmlns:svg="http://www.w3.org/2000/svg"
   xmlns="http://www.w3.org/2000/svg"
   xmlns:sodipodi="http://sodipodi.sourceforge.net/DTD/sodipodi-0.dtd"
   xmlns:inkscape="http://www.inkscape.org/namespaces/inkscape"
   inkscape:version="1.0 (4035a4fb49, 2020-05-01)"
   sodipodi:docname="pg_3ddruck_black.svg"
   viewBox="0 0 1440 1440"
   height="1440"
   width="1440"
   xml:space="preserve"
   id="svg833"
   version="1.1"><metadata
     id="metadata839"><rdf:RDF><cc:Work
         rdf:about=""><dc:format>image/svg+xml</dc:format><dc:type
           rdf:resource="http://purl.org/dc/dcmitype/StillImage" /><dc:title></dc:title></cc:Work></rdf:RDF></metadata><defs
     id="defs837"><clipPath
       id="clipPath849"
       clipPathUnits="userSpaceOnUse"><path
         id="path847"
         d="M 0,1080 H 1080 V 0 H 0 Z" /></clipPath></defs><sodipodi:namedview
     inkscape:current-layer="g841"
     inkscape:window-maximized="1"
     inkscape:window-y="-8"
     inkscape:window-x="1912"
     inkscape:cy="720"
     inkscape:cx="720"
     inkscape:zoom="0.44791667"
     showgrid="false"
     id="namedview835"
     inkscape:window-height="1377"
     inkscape:window-width="2560"
     inkscape:pageshadow="2"
     inkscape:pageopacity="0"
     guidetolerance="10"
     gridtolerance="10"
     objecttolerance="10"
     borderopacity="1"
     bordercolor="#666666"
     pagecolor="#ffffff" /><g
     transform="matrix(1.3333333,0,0,-1.3333333,0,1440)"
     inkscape:label="3D Druck_neu_02"
     inkscape:groupmode="layer"
     id="g841"><g
       id="g843"><g
         clip-path="url(#clipPath849)"
         id="g845"><g
           transform="translate(450.4233,739.9507)"
           id="g851"><path
             transform="matrix(0.75000002,0,0,-0.75000002,-450.4233,340.04933)"
             d="M 547.9375 321.99219 C 538.19617 321.99219 530.29883 329.89148 530.29883 339.63281 L 530.29883 383.13281 C 530.29883 421.93948 561.75779 453.39844 600.56445 453.39844 L 846.03711 453.39844 C 884.84244 453.39844 916.30273 421.93948 916.30273 383.13281 L 916.30273 339.63281 C 916.30273 329.89148 908.4054 321.99219 898.66406 321.99219 L 636.08203 321.99219 L 636.08203 392.70312 C 636.08203 400.67512 629.3633 407.0754 621.2793 406.55273 C 613.90063 406.0754 608.32227 399.62052 608.32227 392.22852 L 608.32227 321.99219 L 547.9375 321.99219 z M 653.03516 468.28906 L 653.03516 542.20508 C 653.03516 556.31708 664.47589 567.75781 678.58789 567.75781 L 686.5 567.75781 L 714.07227 615.51758 C 718.1736 622.62024 728.42858 622.62024 732.53125 615.51758 L 760.10547 567.75781 L 768.01758 567.75781 C 782.12824 567.75781 793.56836 556.31708 793.56836 542.20508 L 793.56836 468.28906 L 690.01367 468.28906 L 690.01367 538.83984 C 690.01367 543.14251 686.32097 546.58273 681.93164 546.16406 C 678.10497 545.79873 675.29492 542.36806 675.29492 538.52539 L 675.29492 468.28906 L 653.03516 468.28906 z M 722.89648 639.74414 C 722.59394 639.73833 722.28896 639.7407 721.98242 639.75195 L 721.9707 639.75195 C 714.09204 640.04129 707.6662 646.02766 706.6582 653.84766 C 699.38087 710.37965 636.86246 767.23689 583.45312 806.21289 C 518.55446 853.57022 452.01228 885.62993 451.34961 885.94727 L 436.66797 892.97266 C 428.35864 896.94866 429.45708 909.11054 438.34375 911.5332 L 720.3125 988.42383 C 723.06583 989.17449 725.96932 989.17573 728.72266 988.42773 L 972.89258 921.98828 C 977.57258 920.71495 982.18555 924.23784 982.18555 929.08984 L 982.18555 1007.5176 C 982.18555 1010.7709 980.05155 1013.6364 976.93555 1014.5684 L 728.13867 1089.0098 C 725.20801 1089.8884 722.08586 1089.9065 719.14453 1089.0625 L 478.04492 1019.9746 L 468.58203 1017.375 C 464.37003 1016.2163 461.41693 1012.4305 461.32227 1008.0625 L 460.08789 950.75195 C 459.89722 941.91729 452.58076 934.90956 443.74609 935.10156 C 434.91143 935.2909 427.90504 942.60674 428.0957 951.44141 L 429.68945 1025.3828 C 429.87879 1034.1135 435.79723 1041.6776 444.22656 1043.9629 L 469.23047 1050.7383 L 719.33984 1122.4062 C 722.28118 1123.2502 725.40136 1123.2308 728.33203 1122.3535 L 1002.7715 1040.2402 C 1009.5448 1038.2149 1014.1855 1031.9828 1014.1855 1024.9121 L 1014.1855 898.52344 C 1014.1855 887.97677 1004.1623 880.31465 993.98633 883.08398 L 728.73047 955.25977 C 725.97714 956.00777 723.07365 956.00848 720.32031 955.25781 L 512.17188 898.49805 C 508.39321 897.46738 507.74496 892.38051 511.1543 890.45117 C 536.36363 876.18984 569.09065 856.27736 601.94531 832.33203 C 685.73998 771.26003 731.55065 712.58962 738.44531 657.62695 C 739.62977 648.19004 732.27544 639.92424 722.89648 639.74414 z "
             style="fill:#000000;fill-opacity:1;fill-rule:nonzero;stroke:none;stroke-width:1.33333"
             id="path853" /></g><g
           transform="translate(489.7769,728.7827)"
           id="g855" /><g
           transform="translate(745.4893,417.6865)"
           id="g859" /></g></g></g></svg>
