<svg xmlns="http://www.w3.org/2000/svg" xmlns:xlink="http://www.w3.org/1999/xlink" id="Layer_1" x="0px" y="0px" viewBox="0 0 468.5 346.3" style="enable-background:new 0 0 468.5 346.3;" xml:space="preserve"><style type="text/css">	.st0{fill:#FFFFFF;}	.st1{fill:#222222;}</style><title>Artboard 1 copy</title><g>	<circle class="st0" cx="234.3" cy="191.1" r="144.2"></circle>	<path class="st0" d="M53.9,146.8C70.5,92,110.8,47.5,163.6,25.4c25.8-10.7,53.7-15.5,81.7-14.2c27.7,1.3,54.8,8.8,79.3,21.9  c-76.1-37.7-168.1-18.8-223,46c-17.4,20.6-30.1,44.7-37.1,70.8L53.9,146.8z"></path>	<path class="st0" d="M70.1,209c-2.8,5.2-7.2,9.4-12.5,12.1c-5.5,2.9-12,4.3-19.6,4.3H14.9v-69.3h23.1c7.6,0,14.1,1.4,19.6,4.3  c5.3,2.7,9.6,6.8,12.5,12C75.8,184,75.8,197.5,70.1,209L70.1,209z M56.3,208.9c4.5-4.3,6.7-10.4,6.7-18.2s-2.2-13.8-6.7-18.2  c-4.5-4.3-10.8-6.5-19.1-6.5H26.1v49.3h11.1C45.5,215.3,51.9,213.2,56.3,208.9z"></path>	<path class="st1" d="M150,169.9c5,3.8,8.5,9.3,10,15.4h-10.4c-1.3-3.5-3.7-6.6-6.8-8.7c-3.4-2.2-7.4-3.4-11.5-3.2  c-3.4-0.1-6.8,0.9-9.6,2.7c-2.9,1.8-5.2,4.5-6.7,7.6c-3.3,7.3-3.3,15.7,0,23c1.5,3.1,3.8,5.7,6.7,7.6c2.9,1.8,6.2,2.7,9.6,2.7  c4.1,0.1,8.1-1,11.5-3.2c3.1-2.1,5.5-5.1,6.8-8.6H160c-1.5,6.1-5,11.5-10,15.3c-4.9,3.8-11.1,5.6-18.5,5.6  c-5.3,0.1-10.6-1.2-15.2-3.9c-4.4-2.6-7.9-6.4-10.2-10.9c-4.8-10.1-4.8-21.9,0-32c2.3-4.6,5.8-8.4,10.2-11  c4.6-2.7,9.9-4.1,15.2-3.9C138.9,164.2,145.1,166.1,150,169.9z"></path>	<path class="st1" d="M196.3,164.8v36c0,5.4,1.2,9.4,3.6,12c2.4,2.6,5.7,3.9,10,3.9c4.2,0,7.5-1.3,9.9-3.9c2.4-2.6,3.6-6.6,3.6-12  v-36h9.8v36c0,8.3-2.1,14.6-6.4,18.9s-10,6.4-17,6.4c-7,0-12.6-2.1-16.8-6.4s-6.4-10.5-6.4-18.9v-36H196.3z"></path>	<path class="st1" d="M302.2,199.4c2.2,2.7,3.4,6.1,3.4,9.6c0,5-1.7,9-5.1,12c-3.4,3-8.3,4.4-14.7,4.4h-24.1v-60.6h23.7  c6.1,0,10.7,1.4,14,4.1c3.2,2.7,4.9,6.5,4.9,11.2c0.2,3.4-0.9,6.7-3,9.3c-2,2.4-4.8,4.1-7.9,4.8  C296.8,194.8,299.9,196.7,302.2,199.4z M271.5,190.9h12.1c3.4,0,6.1-0.8,7.9-2.4c3.6-3.7,3.6-9.6,0-13.3c-1.8-1.6-4.5-2.4-8.2-2.4  h-11.8V190.9z M292.5,214.8c3.9-3.7,4.1-9.9,0.4-13.8c-0.1-0.1-0.3-0.3-0.4-0.4c-2.1-1.7-5-2.6-8.7-2.6h-12.3v19.3h12.4  C287.6,217.4,290.5,216.5,292.5,214.8L292.5,214.8z"></path>	<path class="st1" d="M341.7,172.7v18.4h22.3v7.6h-22.3v18.8h24.9v8H332v-60.6h34.7v7.9H341.7z"></path>	<path class="st0" d="M449.4,209c-2.8,5.2-7.2,9.4-12.5,12.1c-5.5,2.9-12,4.3-19.6,4.3h-23.2v-69.3h23.1c7.6,0,14.1,1.4,19.6,4.3  c5.3,2.7,9.6,6.8,12.5,12C455.1,184,455.1,197.5,449.4,209L449.4,209z M435.6,208.9c4.5-4.3,6.7-10.4,6.7-18.1s-2.2-13.8-6.7-18.2  c-4.5-4.3-10.8-6.5-19.1-6.5h-11.1v49.3h11.1C424.8,215.3,431.1,213.2,435.6,208.9z"></path>	<circle class="st0" cx="385.4" cy="290.4" r="18.8"></circle>	<circle class="st0" cx="354.5" cy="320.5" r="10.4"></circle>	<g>		<path class="st0" d="M357.4,69.4c-2.7-4.7-6-8.5-11.2-10.8c3.7-5.1,7.2-10.1,10.8-15c5.1,4.9,10,9.6,15.1,14.5   C367.4,61.7,362.5,65.5,357.4,69.4z"></path>		<path class="st0" d="M339.7,31.8c3.8,3.6,7.8,7.3,11.7,11.1c0.2,0.2,0.3,0.9,0.2,1.2c-2.4,3.6-4.8,7.2-7.1,10.7   c-4.7-4.5-9.3-8.9-13.9-13.3C333.5,38.4,336.6,35.1,339.7,31.8z"></path>		<path class="st0" d="M361.5,71.1c3.4-2.5,6.9-5.1,10.4-7.6c0.2-0.2,0.9-0.2,1.1,0c4,3.7,7.9,7.5,11.7,11.3   c-3.1,3.3-6.3,6.5-9.3,9.7C370.9,80.1,366.2,75.7,361.5,71.1z"></path>		<path class="st0" d="M353,82.9c-6.7-6.4-13.3-12.8-19.9-19.1c2.8-3.4,11.2-2.8,16,1.1C354.9,69.7,356.8,78.4,353,82.9z"></path>	</g></g></svg>