<?xml version="1.0" standalone="no"?>
<!DOCTYPE svg PUBLIC "-//W3C//DTD SVG 20010904//EN"
 "http://www.w3.org/TR/2001/REC-SVG-20010904/DTD/svg10.dtd">
<svg version="1.0" xmlns="http://www.w3.org/2000/svg"
 width="256.000000pt" height="256.000000pt" viewBox="0 0 256.000000 256.000000"
 preserveAspectRatio="xMidYMid meet">

<g transform="translate(0.000000,256.000000) scale(0.100000,-0.100000)"
fill="#000000" stroke="none">
<path d="M816 2544 c-223 -54 -407 -270 -478 -561 -30 -124 -30 -322 0 -446
42 -172 119 -313 226 -417 l46 -44 0 -489 c0 -539 -1 -528 63 -567 60 -37 139
-14 172 49 13 26 15 92 15 463 l0 433 415 -3 415 -2 0 -431 c0 -475 0 -471 63
-509 41 -25 83 -25 124 0 64 39 63 29 63 561 l0 482 68 71 c110 116 172 233
214 404 30 123 30 322 0 445 -72 294 -256 508 -483 562 -90 21 -834 20 -923
-1z m979 -97 c163 -76 276 -220 342 -434 24 -80 27 -102 27 -253 0 -151 -3
-172 -28 -255 -63 -207 -178 -354 -336 -429 l-65 -31 -455 0 -455 0 -65 31
c-160 77 -272 220 -336 429 -25 83 -28 104 -28 255 0 151 3 173 27 253 72 236
209 395 392 453 31 10 144 13 480 11 l440 -2 60 -28z m-1058 -1443 l43 -17 0
-441 c0 -467 0 -466 -46 -466 -53 0 -54 8 -54 492 0 247 3 448 7 448 4 0 27
-7 50 -16z m1131 -444 c-3 -495 -1 -479 -54 -480 -44 0 -44 2 -44 462 l0 439
43 19 c23 10 46 19 50 19 4 1 6 -206 5 -459z"/>
<path d="M941 2380 c-184 -27 -358 -206 -418 -430 -24 -90 -24 -291 0 -380 47
-173 166 -328 303 -392 l69 -33 385 0 385 0 69 33 c137 64 256 219 303 392 24
90 24 290 0 380 -63 232 -232 402 -427 430 -77 11 -592 11 -669 0z m69 -101
c0 -20 10 -40 29 -60 l29 -29 200 0 c109 0 201 -3 205 -6 3 -3 3 -12 0 -20 -4
-11 -43 -14 -203 -14 -109 0 -206 -3 -215 -6 -21 -8 -45 -56 -45 -89 0 -33 24
-81 45 -89 9 -3 106 -6 216 -6 126 0 199 -4 199 -10 0 -5 0 -13 0 -17 0 -5
-93 -10 -206 -13 l-206 -5 -24 -28 c-35 -41 -33 -99 5 -138 l29 -29 200 0
c109 0 201 -3 205 -6 3 -3 3 -12 0 -20 -4 -11 -43 -14 -207 -14 -210 -1 -221
-3 -244 -47 -24 -43 -4 -122 33 -137 9 -3 106 -6 215 -6 169 0 199 -2 204 -15
3 -9 0 -18 -7 -20 -6 -2 -101 -6 -210 -7 l-199 -3 -24 -28 c-35 -41 -33 -99 5
-138 l29 -29 201 0 c110 0 202 -4 205 -8 2 -4 1 -14 -3 -21 -6 -9 -68 -12
-277 -9 l-269 3 -68 32 c-171 81 -280 281 -280 513 0 197 78 373 209 472 54
40 145 76 197 77 24 1 27 -3 27 -30z m649 12 c192 -60 324 -276 324 -531 0
-113 -20 -197 -69 -298 -64 -132 -191 -231 -317 -248 l-47 -7 0 32 c0 23 -9
42 -29 62 l-29 29 -200 0 c-109 0 -201 3 -205 6 -3 3 -3 12 0 20 4 11 43 14
208 14 l203 0 26 31 c15 18 26 43 26 60 0 37 -23 84 -45 93 -9 3 -106 6 -215
6 -150 0 -199 3 -203 13 -12 35 2 37 213 37 236 0 238 1 247 84 5 40 2 48 -25
76 l-30 30 -200 0 c-109 0 -201 3 -205 6 -3 3 -3 12 0 20 4 11 43 14 208 14
l203 0 26 31 c15 18 26 43 26 60 0 37 -23 84 -45 93 -9 3 -106 6 -215 6 -150
0 -199 3 -203 13 -12 35 2 37 213 37 236 0 238 1 247 84 5 40 2 48 -25 76
l-30 30 -200 0 c-109 0 -201 3 -205 6 -3 3 -3 12 0 20 4 11 50 14 258 14 220
0 261 -2 314 -19z"/>
<path d="M695 1836 c-45 -45 -45 -107 0 -152 19 -18 35 -24 70 -24 64 0 105
39 105 100 0 61 -41 100 -105 100 -35 0 -51 -6 -70 -24z"/>
<path d="M1715 1836 c-68 -68 -27 -176 67 -176 24 0 53 7 64 15 51 35 55 127
7 165 -38 29 -106 27 -138 -4z"/>
</g>
</svg>
