<svg xmlns="http://www.w3.org/2000/svg" xmlns:xlink="http://www.w3.org/1999/xlink" width="164.212" height="40.469" viewBox="0 0 164.212 40.469"><defs><clipPath id="a"><rect width="164.212" height="40.468" fill="none"></rect></clipPath></defs><g transform="translate(0 0.001)"><path d="M18.115,34.866,30.7,27.677V12.558L18.145,5.268V1.651L33.9,10.974v18.75L18.139,38.832ZM1.252,29.608,1.139,10.743,17.011,1.635V5.921l12.551,7.29V27.018L18.107,33.564l-.079-13.04-1.135.007.079,13.019-5.46-2.939-.538,1,6.005,3.233L17,38.819ZM17.582,0,0,10.088.121,30.261,17.576,40.468l17.46-10.089V10.327Z" fill="#fff"></path><g transform="translate(0 -0.001)"><g clip-path="url(#a)"><path d="M276.357,37.857a7.245,7.245,0,0,0-5.69-2.247,6.876,6.876,0,0,0-4.421,1.153,3.832,3.832,0,0,0-1.386,3.108,3.474,3.474,0,0,0,.35,1.648,3.012,3.012,0,0,0,1.094,1.124,7.255,7.255,0,0,0,1.882.788q1.138.321,2.743.671,1.663.35,3.02.773a8.735,8.735,0,0,1,2.305,1.065,4.505,4.505,0,0,1,1.459,1.576,4.752,4.752,0,0,1,.511,2.305,5.049,5.049,0,0,1-.54,2.393,4.811,4.811,0,0,1-1.517,1.707,7.13,7.13,0,0,1-2.335,1.036,12.1,12.1,0,0,1-3.02.35,11.656,11.656,0,0,1-8.2-3.093l.788-1.2a9.512,9.512,0,0,0,3.21,2.174,10.839,10.839,0,0,0,4.26.8A7.77,7.77,0,0,0,275.117,53,3.337,3.337,0,0,0,276.649,50a3.448,3.448,0,0,0-.408-1.736,3.676,3.676,0,0,0-1.211-1.24,8.078,8.078,0,0,0-2.028-.9q-1.226-.379-2.86-.729-1.663-.35-2.933-.744a7.731,7.731,0,0,1-2.13-.992,3.981,3.981,0,0,1-1.3-1.444,4.612,4.612,0,0,1-.438-2.13,5.474,5.474,0,0,1,.54-2.48,5.238,5.238,0,0,1,1.5-1.824,6.712,6.712,0,0,1,2.305-1.124,10.934,10.934,0,0,1,2.977-.379,10.059,10.059,0,0,1,3.589.6,8.47,8.47,0,0,1,2.86,1.824ZM242.39,44.773a9.971,9.971,0,0,0,.6,3.428,9.263,9.263,0,0,0,1.692,2.918,8.336,8.336,0,0,0,2.612,2.028,7.335,7.335,0,0,0,3.327.759,7.15,7.15,0,0,0,3.37-.788,8.229,8.229,0,0,0,2.568-2.086,9.893,9.893,0,0,0,1.619-9.687,9.479,9.479,0,0,0-1.707-2.918,8.437,8.437,0,0,0-2.582-2.028,7.093,7.093,0,0,0-3.268-.759,7.234,7.234,0,0,0-3.385.788,8.343,8.343,0,0,0-2.6,2.086,9.59,9.59,0,0,0-1.663,2.932,9.82,9.82,0,0,0-.584,3.327m8.2,10.5a8.569,8.569,0,0,1-3.939-.9,10.178,10.178,0,0,1-3.064-2.363,10.568,10.568,0,0,1-1.984-3.356,11.12,11.12,0,0,1-.7-3.881,10.774,10.774,0,0,1,.744-3.968,11.092,11.092,0,0,1,2.043-3.356,9.774,9.774,0,0,1,3.079-2.32,8.727,8.727,0,0,1,3.852-.861,8.548,8.548,0,0,1,3.954.919,9.936,9.936,0,0,1,3.064,2.407,11.126,11.126,0,0,1,1.97,3.37,10.971,10.971,0,0,1-2.086,11.147,9.885,9.885,0,0,1-3.079,2.305,8.732,8.732,0,0,1-3.852.861m-15.174-.146V37.215l-8.171,13.977h-.934l-8.17-13.977V55.131h-1.488V34.414h1.488l8.637,14.823,8.638-14.823H236.9V55.131ZM194.738,44.773a9.977,9.977,0,0,0,.6,3.428,9.259,9.259,0,0,0,1.693,2.918,8.332,8.332,0,0,0,2.612,2.028,7.335,7.335,0,0,0,3.327.759,7.149,7.149,0,0,0,3.37-.788,8.226,8.226,0,0,0,2.568-2.086,9.891,9.891,0,0,0,1.619-9.687,9.483,9.483,0,0,0-1.707-2.918,8.442,8.442,0,0,0-2.583-2.028,7.093,7.093,0,0,0-3.268-.759,7.234,7.234,0,0,0-3.385.788,8.342,8.342,0,0,0-2.6,2.086,9.59,9.59,0,0,0-1.663,2.932,9.82,9.82,0,0,0-.584,3.327m8.2,10.5a8.569,8.569,0,0,1-3.939-.9,10.181,10.181,0,0,1-3.064-2.363,10.567,10.567,0,0,1-1.984-3.356,11.114,11.114,0,0,1-.7-3.881,10.769,10.769,0,0,1,.744-3.968,11.091,11.091,0,0,1,2.043-3.356,9.78,9.78,0,0,1,3.079-2.32,8.729,8.729,0,0,1,3.852-.861,8.55,8.55,0,0,1,3.954.919,9.936,9.936,0,0,1,3.064,2.407,11.127,11.127,0,0,1,1.97,3.37,10.971,10.971,0,0,1-2.086,11.147,9.885,9.885,0,0,1-3.079,2.305,8.732,8.732,0,0,1-3.852.861M192.433,35.756h-7.587V55.131h-1.488V35.756H175.77V34.414h16.662Zm-25.621-1.342H168.1l8.754,20.717h-1.576l-7.85-18.856L159.6,55.131H158Z" transform="translate(-114.012 -24.728)" fill="#fff"></path></g></g></g></svg>