<svg width="185" height="45" viewBox="0 0 185 45" fill="none" xmlns="http://www.w3.org/2000/svg">
<g clip-path="url(#clip0_451_403)">
<path d="M5.88776 21.8241C5.85171 21.6766 5.81346 21.5303 5.78067 21.3807C5.72705 21.1361 5.68737 20.9381 5.66947 20.7769C5.74117 21.1645 5.81577 21.5149 5.88776 21.8241ZM5.88776 21.8241C5.9175 21.9517 5.94688 22.0741 5.97527 22.1862C5.94402 22.0668 5.91725 21.9447 5.88776 21.8241ZM11.3684 14.2887C11.4184 14.1732 11.4583 14.0537 11.4875 13.9315C11.627 13.3744 11.8008 12.826 12.0078 12.2893C11.7282 12.9337 11.5141 13.6034 11.3684 14.2887ZM35.3713 -1.81143e-05C34.1481 1.21335 32.9329 2.41898 31.7077 3.63231C34.0072 6.55413 35.6076 9.16148 36.4217 11.3533C36.4574 11.431 36.4932 11.5106 36.527 11.594C38.7132 16.7951 36.527 23.2404 36.527 23.2404L36.5071 23.2385C35.7544 25.6655 34.5256 27.9259 32.8892 29.8936C32.4564 30.4139 32.0115 30.9245 31.7117 31.2741C32.9865 32.5554 34.1958 33.7727 35.405 34.988C46.1178 24.7898 44.3346 7.71321 35.3713 -1.81143e-05ZM6.27527 23.2406H6.27328C6.27328 23.2406 6.19187 22.996 6.07671 22.5708C6.06479 22.532 6.0547 22.4951 6.04495 22.4582C6.03519 22.4213 6.02705 22.3844 6.01517 22.3456C6.00127 22.2932 5.98733 22.2407 5.97541 22.1864C5.90592 21.9204 5.84041 21.6525 5.78082 21.3807C5.7272 21.1361 5.68752 20.9381 5.66962 20.7769C5.23686 18.4239 4.93693 14.778 6.27328 11.5939C6.27527 11.5939 6.27527 11.5939 6.27527 11.592C7.05959 9.35354 8.68986 6.66081 11.0746 3.6322C9.84949 2.41883 8.63426 1.21321 7.41105 -0.00012207C-1.55228 7.71311 -3.33541 24.7897 7.37731 34.9879C8.58659 33.7726 9.79587 32.5553 11.0687 31.274C10.7708 30.9246 10.326 30.414 9.89316 29.8935C8.25721 27.9263 7.0284 25.6667 6.27527 23.2406ZM31.4497 14.3606C31.3809 14.2241 31.3289 14.08 31.2948 13.9315C30.6925 11.5075 29.433 9.28699 27.649 7.50363C26.3464 8.76555 25.1133 9.96146 23.8722 11.1651C25.008 12.4967 25.8139 14.0666 26.2272 15.7527H16.553C16.9671 14.0665 17.7737 12.4966 18.91 11.1651C17.669 9.96146 16.4358 8.76555 15.1333 7.50363C13.7694 8.87066 12.707 10.4968 12.0118 12.2814L12.0078 12.2892C11.8008 12.8259 11.627 13.3743 11.4875 13.9314C11.4583 14.0536 11.4184 14.1731 11.3684 14.2887C10.804 16.8064 10.9308 19.4253 11.7357 21.8796L11.7417 21.8971C11.7973 22.0679 11.8569 22.2388 11.9204 22.4116C11.9244 22.4252 11.9303 22.4367 11.9343 22.4484C11.9998 22.6232 12.0674 22.7998 12.1408 22.9765C12.4743 23.7917 12.8893 24.5727 13.3799 25.3081C13.8648 26.0351 14.4301 26.7077 15.0657 27.3136C16.3564 26.0963 17.6014 24.9219 18.8862 23.7103C17.9303 22.5854 17.2025 21.2927 16.7416 19.9013H26.0406C25.5789 21.2927 24.8504 22.5855 23.894 23.7103C25.1788 24.9218 26.4258 26.0963 27.7165 27.3136C29.5067 25.5539 30.7572 23.3393 31.3264 20.9206C31.345 20.8429 31.3683 20.7664 31.3961 20.6915C31.8883 18.6105 31.9066 16.4492 31.4496 14.3606H31.4497Z" fill="#5A64FF"/>
<path d="M93.2744 39.7804L95.6691 42.8872V39.7804H96.949V44.9411H95.7444L93.3498 41.849V44.9411H92.0625V39.7804H93.2744Z" fill="white"/>
<path d="M104.404 39.7804V40.8554H101.618V41.8197H104.133V42.8946H101.618V43.8664H104.48V44.9411H100.24V39.7804H104.404Z" fill="white"/>
<path d="M111.65 39.7804V40.8921H110.069V44.9411H108.691V40.8921H107.125V39.7804H111.65Z" fill="white"/>
<path d="M115.423 39.7804L116.424 43.5129L117.418 39.7804H118.766L119.767 43.5129L120.761 39.7804H122.177L120.437 44.9411H119.015L118.066 41.459L117.087 44.9411H115.671L113.939 39.7804H115.423Z" fill="white"/>
<path d="M130.213 42.3571C130.213 43.8664 128.994 45.0001 127.36 45.0001C125.726 45.0001 124.506 43.8664 124.506 42.3571C124.506 40.8554 125.726 39.7437 127.36 39.7437C128.994 39.7437 130.213 40.8627 130.213 42.3571ZM125.921 42.3646C125.913 42.7501 126.061 43.1231 126.334 43.4019C126.606 43.6807 126.98 43.8424 127.375 43.8517C127.676 43.8636 127.975 43.7871 128.232 43.6321C128.488 43.4771 128.692 43.2506 128.816 42.9816C128.941 42.7127 128.98 42.4135 128.929 42.1226C128.878 41.8317 128.74 41.5623 128.531 41.3489C128.323 41.1355 128.054 40.9879 127.759 40.9251C127.464 40.8622 127.156 40.8869 126.876 40.9961C126.595 41.1052 126.355 41.2938 126.185 41.5376C126.015 41.7815 125.923 42.0694 125.921 42.3646Z" fill="white"/>
<path d="M136.328 44.9411L135.56 43.5129H134.536V44.9411H133.158V39.7804H135.53C136.931 39.7804 137.729 40.443 137.729 41.5914C137.753 41.9281 137.678 42.2644 137.51 42.5597C137.343 42.855 137.092 43.0966 136.788 43.2552L137.887 44.9411L136.328 44.9411ZM134.536 42.4381H135.538C135.652 42.4545 135.769 42.4456 135.879 42.4119C135.989 42.3783 136.091 42.3209 136.175 42.2438C136.26 42.1668 136.325 42.0721 136.368 41.9669C136.41 41.8616 136.427 41.7484 136.418 41.6357C136.418 41.1277 136.095 40.8554 135.538 40.8554H134.536V42.4381Z" fill="white"/>
<path d="M144.297 44.9411L142.927 42.9461L142.249 43.6823V44.9411H140.871V39.7804H142.249V41.9449L144.229 39.7804H145.825L143.868 41.9154L145.946 44.9411H144.297Z" fill="white"/>
<path d="M156.1 1.92517C155.355 1.92604 154.64 2.21585 154.113 2.731C153.586 3.24616 153.29 3.94461 153.289 4.67315V30.0411C153.289 30.77 153.585 31.469 154.112 31.9844C154.64 32.4998 155.354 32.7894 156.1 32.7894C156.846 32.7894 157.56 32.4998 158.088 31.9844C158.615 31.469 158.911 30.77 158.911 30.0411V4.67315C158.91 3.94452 158.614 3.24601 158.086 2.73084C157.559 2.21567 156.845 1.92593 156.1 1.92517Z" fill="white"/>
<path d="M64.7254 10.5709C63.5435 10.5418 62.3719 10.7927 61.3106 11.302C60.2492 11.8113 59.3296 12.5639 58.6301 13.4958V4.75858C58.6301 4.02964 58.3339 3.33057 57.8067 2.81513C57.2795 2.2997 56.5645 2.01013 55.8189 2.01013C55.0734 2.01013 54.3584 2.2997 53.8312 2.81513C53.304 3.33057 53.0078 4.02964 53.0078 4.75858V30.1265C53.0078 30.8554 53.304 31.5545 53.8312 32.0699C54.3584 32.5854 55.0734 32.875 55.8189 32.875C56.5645 32.875 57.2795 32.5854 57.8067 32.0699C58.3339 31.5545 58.6301 30.8554 58.6301 30.1265V21.3523C58.6301 17.8317 60.5541 15.7299 63.7768 15.7299C67.0952 15.7299 68.9226 17.7262 68.9226 21.3523V30.1265C68.9253 30.8538 69.2227 31.5504 69.7496 32.0637C70.2766 32.577 70.9901 32.8653 71.734 32.8653C72.4779 32.8653 73.1914 32.577 73.7183 32.0637C74.2453 31.5504 74.5427 30.8538 74.5454 30.1265V21.3523C74.5454 13.4031 69.4727 10.5709 64.7254 10.5709Z" fill="white"/>
<path d="M96.1457 14.0425C95.4005 14.0434 94.686 14.3333 94.1591 14.8485C93.6322 15.3638 93.3358 16.0624 93.335 16.791V22.196C93.335 25.8212 91.5075 27.8177 88.1889 27.8177C84.8703 27.8177 83.0422 25.8213 83.0422 22.196V16.791C83.0422 16.0621 82.746 15.363 82.2188 14.8476C81.6916 14.3322 80.9766 14.0426 80.2311 14.0426C79.4855 14.0426 78.7705 14.3322 78.2433 14.8476C77.7161 15.363 77.4199 16.0621 77.4199 16.791V22.196C77.4199 28.947 81.4456 32.9774 88.1889 32.9774C94.9321 32.9774 98.9574 28.9471 98.9574 22.196V16.791C98.9565 16.0623 98.66 15.3636 98.1329 14.8484C97.6057 14.3331 96.8911 14.0433 96.1457 14.0425Z" fill="white"/>
<path d="M114.326 10.5708C111.444 10.5708 109.033 11.6546 107.454 13.6391V4.75853C107.454 4.02964 107.158 3.33061 106.631 2.81521C106.103 2.29981 105.388 2.01025 104.643 2.01025C103.897 2.01025 103.182 2.29981 102.655 2.81521C102.128 3.33061 101.832 4.02964 101.832 4.75853V21.6054C101.832 28.3537 106.44 32.9233 113.304 32.9768H113.401C119.979 32.9768 125.153 27.9906 125.181 21.6259C125.195 18.4199 124.12 15.6634 122.074 13.6539C120.009 11.6666 117.223 10.5583 114.326 10.5708ZM113.463 27.8177C109.925 27.8177 107.454 25.3325 107.454 21.7744C107.454 18.2157 109.925 15.73 113.463 15.73C117.026 15.73 119.515 18.2157 119.515 21.7744C119.515 25.3325 117.026 27.8177 113.463 27.8177H113.463Z" fill="white"/>
<path d="M139.688 10.5709C136.807 10.5709 134.397 11.6547 132.817 13.6398V4.7586C132.817 4.02979 132.52 3.33083 131.993 2.81549C131.466 2.30014 130.751 2.01062 130.006 2.01062C129.261 2.01062 128.546 2.30014 128.019 2.81549C127.491 3.33083 127.195 4.02979 127.195 4.7586V21.6055C127.195 28.3538 131.804 32.9234 138.667 32.9769H138.763C145.342 32.9769 150.516 27.9907 150.543 21.626C150.557 18.42 149.483 15.6635 147.437 13.654C145.371 11.6667 142.586 10.5584 139.688 10.5709ZM138.827 27.8178C135.288 27.8178 132.817 25.3326 132.817 21.7745C132.817 18.2157 135.288 15.7301 138.827 15.7301C142.39 15.7301 144.878 18.2157 144.878 21.7745C144.878 25.3326 142.39 27.8178 138.827 27.8178Z" fill="white"/>
<path d="M185 21.7493C185.006 15.1448 180.222 10.5312 173.37 10.5312C167.15 10.5312 162.492 14.4863 161.759 20.141C161.686 20.6698 161.65 21.203 161.652 21.7366C161.669 23.921 162.347 26.0517 163.6 27.8601C164.853 29.6686 166.626 31.0741 168.695 31.8994C170.524 32.6243 172.478 33.0034 174.452 33.0166C176.857 32.9912 179.194 32.2368 181.142 30.8575C182.565 29.8376 184.535 27.4048 182.899 25.6929C182.43 25.2012 181.666 25.0977 180.982 25.1753C180.008 25.286 179.57 25.7621 178.921 26.3935C178.358 26.924 177.684 27.3291 176.946 27.5811C176.148 27.8689 175.302 28.0109 174.452 27.9998C171.418 28.0531 168.474 26.9489 167.601 23.7481H182.946C183.489 23.7485 184.01 23.5383 184.395 23.1636C184.78 22.789 184.998 22.2804 185 21.7493ZM167.751 19.2624C168.584 16.9066 170.616 15.5656 173.37 15.5656C176.095 15.5656 178.167 16.9389 178.989 19.2624H167.751Z" fill="white"/>
</g>
<defs>
<clipPath id="clip0_451_403">
<rect width="185" height="45" fill="white"/>
</clipPath>
</defs>
</svg>
